<mxfile host="65bd71144e">
    <diagram name="Page-1" id="c9db0220-8083-56f3-ca83-edcdcd058819">
        <mxGraphModel dx="1706" dy="1254" grid="1" gridSize="10" guides="1" tooltips="1" connect="1" arrows="1" fold="1" page="1" pageScale="1.5" pageWidth="1169" pageHeight="827" background="#ffffff" math="0" shadow="0">
            <root>
                <mxCell id="0" style=";html=1;"/>
                <mxCell id="1" style=";html=1;" parent="0"/>
                <mxCell id="3d76a8aef4d5c911-1" value="" style="html=1;shadow=0;dashed=0;shape=mxgraph.bootstrap.rect;fillColor=#222222;strokeColor=none;whiteSpace=wrap;rounded=0;fontSize=12;fontColor=#000000;align=center;" parent="1" vertex="1">
                    <mxGeometry x="80" y="70" width="1600" height="90" as="geometry"/>
                </mxCell>
                <mxCell id="3d76a8aef4d5c911-7" value="Zoeken" style="html=1;shadow=0;dashed=0;fillColor=none;strokeColor=none;shape=mxgraph.bootstrap.rect;fontColor=#999999;whiteSpace=wrap;fontSize=24;" parent="3d76a8aef4d5c911-1" vertex="1">
                    <mxGeometry x="480.0139130434782" width="160" height="90" as="geometry"/>
                </mxCell>
                <mxCell id="3d76a8aef4d5c911-8" value="Login" style="html=1;shadow=0;dashed=0;fillColor=none;strokeColor=none;shape=mxgraph.bootstrap.rect;fontColor=#999999;whiteSpace=wrap;fontSize=24;" parent="3d76a8aef4d5c911-1" vertex="1">
                    <mxGeometry x="1320" width="140" height="90" as="geometry"/>
                </mxCell>
                <mxCell id="H9CyvaDkC_5dpCcxhKHN-1" value="Contact" style="html=1;shadow=0;dashed=0;fillColor=none;strokeColor=none;shape=mxgraph.bootstrap.rect;fontColor=#999999;whiteSpace=wrap;fontSize=24;" parent="3d76a8aef4d5c911-1" vertex="1">
                    <mxGeometry x="340.0069565217391" width="140" height="90" as="geometry"/>
                </mxCell>
                <mxCell id="H9CyvaDkC_5dpCcxhKHN-2" value="Registratie" style="html=1;shadow=0;dashed=0;fillColor=none;strokeColor=none;shape=mxgraph.bootstrap.rect;fontColor=#999999;whiteSpace=wrap;fontSize=24;" parent="3d76a8aef4d5c911-1" vertex="1">
                    <mxGeometry x="1460.0069565217393" width="140" height="90" as="geometry"/>
                </mxCell>
                <mxCell id="H9CyvaDkC_5dpCcxhKHN-4" value="About" style="html=1;shadow=0;dashed=0;fillColor=none;strokeColor=none;shape=mxgraph.bootstrap.rect;fontColor=#999999;whiteSpace=wrap;fontSize=24;" parent="3d76a8aef4d5c911-1" vertex="1">
                    <mxGeometry x="179.99304347826086" width="140" height="90" as="geometry"/>
                </mxCell>
                <mxCell id="11" value="Home" style="html=1;shadow=0;dashed=0;fillColor=none;strokeColor=none;shape=mxgraph.bootstrap.rect;fontColor=#999999;whiteSpace=wrap;fontSize=24;" parent="3d76a8aef4d5c911-1" vertex="1">
                    <mxGeometry x="20.00304347826085" width="140" height="90" as="geometry"/>
                </mxCell>
                <mxCell id="3d76a8aef4d5c911-17" value="WF9.0" style="html=1;shadow=0;dashed=0;shape=mxgraph.bootstrap.rect;strokeColor=none;fillColor=none;fontColor=#000000;align=left;spacingLeft=5;whiteSpace=wrap;rounded=0;fontStyle=1;fontSize=30;" parent="1" vertex="1">
                    <mxGeometry y="10" width="200" height="20" as="geometry"/>
                </mxCell>
                <mxCell id="H9CyvaDkC_5dpCcxhKHN-5" value="" style="html=1;shadow=0;dashed=0;shape=mxgraph.bootstrap.rect;fillColor=#222222;strokeColor=none;whiteSpace=wrap;rounded=0;fontSize=12;fontColor=#000000;align=center;" parent="1" vertex="1">
                    <mxGeometry x="80" y="1110" width="1600" height="90" as="geometry"/>
                </mxCell>
                <mxCell id="H9CyvaDkC_5dpCcxhKHN-9" value="Footer tekst" style="html=1;shadow=0;dashed=0;fillColor=none;strokeColor=none;shape=mxgraph.bootstrap.rect;fontColor=#999999;whiteSpace=wrap;fontSize=24;" parent="H9CyvaDkC_5dpCcxhKHN-5" vertex="1">
                    <mxGeometry x="50" width="340" height="90" as="geometry"/>
                </mxCell>
                <mxCell id="60" value="Paginatitel auteurnaam" style="html=1;shadow=0;dashed=0;shape=mxgraph.bootstrap.rect;fillColor=#000000;strokeColor=none;fontColor=#ffffff;spacingRight=30;whiteSpace=wrap;fontSize=26;" parent="1" vertex="1">
                    <mxGeometry x="75" y="180" width="1605" height="70" as="geometry"/>
                </mxCell>
                <mxCell id="b62AR1I5Rk1UXNjIn0F9-82" value="&lt;font style=&quot;font-size: 24px;&quot;&gt;Beschrijving auteur&lt;br&gt;&lt;br&gt;&lt;br&gt;&lt;br&gt;&lt;br&gt;&lt;/font&gt;" style="rounded=0;whiteSpace=wrap;html=1;align=center;" parent="1" vertex="1">
                    <mxGeometry x="75" y="270" width="1600" height="160" as="geometry"/>
                </mxCell>
                <mxCell id="b62AR1I5Rk1UXNjIn0F9-86" value="Artikelen&lt;br&gt;&lt;br&gt;&lt;br&gt;&lt;br&gt;&lt;br&gt;&lt;br&gt;&lt;br&gt;" style="rounded=0;whiteSpace=wrap;html=1;fontSize=24;align=center;" parent="1" vertex="1">
                    <mxGeometry x="75" y="450" width="1600" height="280" as="geometry"/>
                </mxCell>
                <mxCell id="b62AR1I5Rk1UXNjIn0F9-88" value="Naam artikel 1 (link)" style="html=1;shadow=0;dashed=0;shape=mxgraph.bootstrap.rect;fillColor=#000000;strokeColor=none;fontColor=#ffffff;spacingRight=30;whiteSpace=wrap;fontSize=26;" parent="1" vertex="1">
                    <mxGeometry x="635" y="550" width="480" height="40" as="geometry"/>
                </mxCell>
                <mxCell id="b62AR1I5Rk1UXNjIn0F9-90" value="Naam artikel 2 (link)" style="html=1;shadow=0;dashed=0;shape=mxgraph.bootstrap.rect;fillColor=#000000;strokeColor=none;fontColor=#ffffff;spacingRight=30;whiteSpace=wrap;fontSize=26;" parent="1" vertex="1">
                    <mxGeometry x="635" y="600" width="480" height="40" as="geometry"/>
                </mxCell>
                <mxCell id="b62AR1I5Rk1UXNjIn0F9-91" value="Naam artikel 4 (link)" style="html=1;shadow=0;dashed=0;shape=mxgraph.bootstrap.rect;fillColor=#000000;strokeColor=none;fontColor=#ffffff;spacingRight=30;whiteSpace=wrap;fontSize=26;" parent="1" vertex="1">
                    <mxGeometry x="635" y="650" width="480" height="40" as="geometry"/>
                </mxCell>
            </root>
        </mxGraphModel>
    </diagram>
</mxfile>